<svg width="475" height="475" viewBox="0 0 475 475" fill="none" xmlns="http://www.w3.org/2000/svg">
<g clip-path="url(#clip0_32_2)">
<path d="M0 466.38V8.31173V8.00908C0 3.58578 3.58579 0 8.00908 0H466.991H468.535C472.106 0 475 2.89434 475 6.46468V468.227C475 471.968 471.968 475 468.228 475H467.915H7.70104C3.44787 475 0 471.552 0 467.299V466.38Z" stroke="white"/>
<path d="M28.4745 29.398H2V78.9608H28.4745M30.3216 29.398H79.5765M30.3216 78.9608H79.5765M81.4235 29.398H130.678V78.9608H85.7368C85.3331 78.9608 84.9384 79.0803 84.6025 79.3042L83.4727 80.0574C82.5968 80.6414 81.4235 80.0135 81.4235 78.9608V78.9608M239.039 393.576V344.322H291.065M239.039 395.424V445.294H291.065M293.22 344.322H338.777C339.181 344.322 339.575 344.202 339.911 343.978L341.041 343.225C341.917 342.641 343.09 343.269 343.09 344.322V344.322M344.937 344.322H394.192M396.039 344.322H445.294M447.141 344.322H473V393.576M293.22 445.294H343.09M344.937 445.294H394.192M396.039 445.294H445.294M473 395.424V445.294H447.141M2 10.2417V9.94163C2 5.55559 5.55559 2 9.94163 2V2H28.4745V27.551H2V10.2417ZM2 464.453V465.364C2 469.581 5.41884 473 9.63619 473V473H28.4745V447.141H2V464.453ZM465.975 473H466.285C469.993 473 473 469.993 473 466.285V466.285V447.141H447.141V473H465.975ZM473 8.41024V8.41024C473 4.86996 470.13 2 466.59 2H465.058H447.141V27.551H473V8.41024ZM30.3216 2V27.551H79.5765V2H30.3216ZM81.4235 2V27.551H130.678V2H81.4235ZM132.525 2V27.551H182.396V2H132.525ZM184.243 2V27.551H237.192V2H184.243ZM239.039 2V27.551H291.065V2H239.039ZM293.22 2V27.551H343.09V2H293.22ZM344.937 2V27.551H394.192V2H344.937ZM396.039 2V27.551H445.294V2H396.039ZM2 80.8078H28.4745V130.678H2V80.8078ZM2 132.525H28.4745V181.78H2V132.525ZM2 183.627H28.4745V236.576H2V183.627ZM2 238.424H28.4745V290.757H2V238.424ZM2 292.604H28.4745V342.475H2V292.604ZM2 344.322H28.4745V393.576H2V344.322ZM2 395.424H28.4745V445.294H2V395.424ZM132.525 29.398V78.9608H182.396V29.398H132.525ZM184.243 29.398V78.9608H237.192V29.398H184.243ZM239.039 29.398V78.9608H291.065V29.398H239.039ZM293.22 29.398V78.9608H343.09V29.398H293.22ZM344.937 29.398V78.9608H389.879C390.283 78.9608 390.677 79.0803 391.013 79.3042L392.143 80.0574C393.019 80.6414 394.192 80.0135 394.192 78.9608V78.9608V29.398H344.937ZM396.039 29.398V78.9608H445.294V29.398H396.039ZM473 29.398H447.141V78.9608H473V29.398ZM30.3216 80.8078V130.678H79.5765V85.1211C79.5765 84.7174 79.696 84.3227 79.9199 83.9868L80.6731 82.857C81.2571 81.9811 80.6292 80.8078 79.5765 80.8078V80.8078H30.3216ZM81.4235 130.678V91.8078C81.4235 85.7327 86.3484 80.8078 92.4235 80.8078H130.678V130.678H81.4235ZM132.525 80.8078V130.678V130.678C132.525 131.668 133.567 132.312 134.453 131.87L136.287 130.953C136.647 130.772 137.045 130.678 137.449 130.678H182.396V80.8078H132.525ZM184.243 80.8078V130.678H237.192V80.8078H184.243ZM30.3216 132.525V181.78H79.5765V132.525H30.3216ZM30.3216 183.627V236.576H79.5765V183.627H30.3216ZM81.4235 132.525V181.78H130.678V136.507C130.678 136.12 130.801 135.743 131.028 135.431L131.693 134.517C132.296 133.688 131.703 132.525 130.678 132.525V132.525H81.4235ZM132.525 181.78V143.525C132.525 137.45 137.45 132.525 143.525 132.525H182.396V181.78H132.525ZM184.243 132.525V181.78H237.192V132.525H184.243ZM81.4235 183.627V236.576H130.678V183.627H81.4235ZM132.525 183.627V236.576H182.396V183.627H132.525ZM184.243 183.627V236.576H237.192V183.627H184.243ZM239.039 80.8078V130.678H291.065V80.8078H239.039ZM293.22 80.8078V130.678H338.777C339.181 130.678 339.575 130.798 339.911 131.022L341.041 131.775C341.917 132.359 343.09 131.731 343.09 130.678V130.678V80.8078H293.22ZM344.937 80.8078V130.678H394.192V91.8078C394.192 85.7327 389.267 80.8078 383.192 80.8078H344.937ZM396.039 80.8078H445.294V130.678H396.039V85.1211C396.039 84.7174 395.92 84.3227 395.696 83.9868L394.943 82.857C394.359 81.9811 394.987 80.8078 396.039 80.8078V80.8078ZM473 80.8078H447.141V130.678H473V80.8078ZM473 132.525H447.141V181.78H473V132.525ZM473 183.627H447.141V236.576H473V183.627ZM239.039 132.525V181.78H291.065V132.525H239.039ZM293.22 132.525V181.78H343.09V143.525C343.09 137.45 338.165 132.525 332.09 132.525H293.22ZM344.937 132.525H394.192V181.78H344.937V136.839C344.937 136.435 344.818 136.04 344.594 135.704L343.841 134.575C343.257 133.699 343.885 132.525 344.937 132.525V132.525ZM396.039 132.525V181.78H445.294V132.525H396.039ZM445.294 183.627H396.039V236.576H445.294V183.627ZM394.192 183.627H344.937V236.576H394.192V183.627ZM343.09 183.627H293.22V236.576H343.09V183.627ZM239.039 183.627V236.576H291.065V183.627H239.039ZM30.3216 238.424V290.757H79.5765V238.424H30.3216ZM81.4235 238.424V290.757H130.678V238.424H81.4235ZM132.525 238.424V290.757H182.396V238.424H132.525ZM184.243 238.424V290.757H237.192V238.424H184.243ZM239.039 238.424V290.757H291.065V238.424H239.039ZM30.3216 292.604V342.475H79.5765V292.604H30.3216ZM81.4235 292.604V342.475H130.678V342.475C131.731 342.475 132.359 341.301 131.775 340.425L131.022 339.296C130.798 338.96 130.678 338.565 130.678 338.161V292.604H81.4235ZM132.525 292.604V331.475C132.525 337.55 137.45 342.475 143.525 342.475H182.396V292.604H132.525ZM184.243 292.604V342.475H237.192V292.604H184.243ZM239.039 292.604V342.475H291.065V292.604H239.039ZM30.3216 344.322V393.576H79.5765V393.576C80.6292 393.576 81.2571 392.403 80.6731 391.527L79.9199 390.397C79.696 390.062 79.5765 389.667 79.5765 389.263V344.322H30.3216ZM81.4235 344.322V382.576C81.4235 388.652 86.3484 393.576 92.4235 393.576H130.678V344.322H81.4235ZM132.525 344.322V393.576H182.396V344.322H136.839C136.435 344.322 136.04 344.202 135.704 343.978L134.575 343.225C133.699 342.641 132.525 343.269 132.525 344.322V344.322ZM184.243 344.322V393.576H237.192V344.322H184.243ZM30.3216 395.424V445.294H79.5765V395.424H30.3216ZM81.4235 395.424V445.294H130.678V395.424H85.7368C85.3331 395.424 84.9384 395.304 84.6025 395.08L83.4727 394.327C82.5968 393.743 81.4235 394.371 81.4235 395.424V395.424ZM132.525 395.424V445.294H182.396V395.424H132.525ZM184.243 395.424V445.294H237.192V395.424H184.243ZM30.3216 473V447.141H79.5765V473H30.3216ZM81.4235 473V447.141H130.678V473H81.4235ZM132.525 473V447.141H182.396V473H132.525ZM184.243 473V447.141H237.192V473H184.243ZM239.039 473V447.141H291.065V473H239.039ZM293.22 238.424V290.757H343.09V238.424H293.22ZM344.937 238.424V290.757H394.192V238.424H344.937ZM396.039 238.424V290.757H445.294V238.424H396.039ZM473 238.424H447.141V290.757H473V238.424ZM293.22 292.604V342.475H332.09C338.165 342.475 343.09 337.55 343.09 331.475V292.604H293.22ZM344.937 292.604H394.192V342.475H344.937V342.475C343.885 342.475 343.257 341.301 343.841 340.425L344.594 339.296C344.818 338.96 344.937 338.565 344.937 338.161V292.604ZM396.039 292.604V342.475H445.294V292.604H396.039ZM473 292.604H447.141V342.475H473V292.604ZM293.22 473V447.141H343.09V473H293.22ZM344.937 473V447.141H394.192V473H344.937ZM396.039 473V447.141H445.294V473H396.039Z" stroke="white"/>
<path d="M314.424 377.968H324.696V388H313.68C312.288 388 311 387.792 309.816 387.376C308.632 386.96 307.608 386.392 306.744 385.672C305.896 384.936 305.224 384.072 304.728 383.08C304.248 382.072 304.008 380.984 304.008 379.816C304.008 378.648 304.248 377.584 304.728 376.624C305.224 375.648 305.896 374.816 306.744 374.128C307.608 373.424 308.632 372.888 309.816 372.52C311 372.136 312.288 371.944 313.68 371.944H325.176L321.96 376.12H313.68C313.008 376.12 312.384 376.216 311.808 376.408C311.232 376.6 310.728 376.872 310.296 377.224C309.88 377.576 309.552 377.992 309.312 378.472C309.072 378.936 308.952 379.456 308.952 380.032C308.952 380.608 309.064 381.136 309.288 381.616C309.528 382.08 309.856 382.48 310.272 382.816C310.704 383.152 311.208 383.416 311.784 383.608C312.36 383.784 312.992 383.872 313.68 383.872H319.752V381.544H311.448L314.424 377.968ZM346.199 383.872L343.007 388H327.551V371.944H346.151L342.935 376.12H332.543V378.04H345.263L342.407 381.688H332.543V383.872H346.199ZM353.867 388L356.867 383.872H360.899C361.379 383.872 361.875 383.872 362.387 383.872C362.915 383.872 363.371 383.888 363.755 383.92C363.531 383.632 363.267 383.272 362.963 382.84C362.675 382.392 362.395 381.976 362.123 381.592L359.243 377.344L351.707 388H345.827L356.123 373.48C356.459 373.016 356.883 372.6 357.395 372.232C357.907 371.864 358.555 371.68 359.339 371.68C360.091 371.68 360.715 371.856 361.211 372.208C361.723 372.544 362.155 372.968 362.507 373.48L372.539 388H353.867ZM397.085 388H390.437L386.861 383.752H379.229V388H374.261V379.792H388.229C388.997 379.792 389.645 379.632 390.173 379.312C390.701 378.992 390.965 378.552 390.965 377.992C390.965 377.368 390.725 376.904 390.245 376.6C389.765 376.28 389.093 376.12 388.229 376.12H374.261L377.501 371.944H387.821C388.733 371.944 389.677 372.032 390.653 372.208C391.629 372.368 392.517 372.664 393.317 373.096C394.117 373.528 394.773 374.112 395.285 374.848C395.813 375.584 396.077 376.528 396.077 377.68C396.077 378.304 395.981 378.896 395.789 379.456C395.597 380.016 395.317 380.52 394.949 380.968C394.597 381.416 394.157 381.8 393.629 382.12C393.117 382.424 392.533 382.64 391.877 382.768C392.149 382.976 392.453 383.24 392.789 383.56C393.125 383.88 393.573 384.32 394.133 384.88L397.085 388ZM416.991 379.744C417.695 379.952 418.287 380.36 418.767 380.968C419.263 381.576 419.511 382.36 419.511 383.32C419.511 383.992 419.407 384.616 419.199 385.192C418.991 385.752 418.639 386.24 418.143 386.656C417.647 387.072 416.975 387.4 416.127 387.64C415.295 387.88 414.247 388 412.983 388H398.871V378.232H413.079C413.447 378.232 413.767 378.16 414.039 378.016C414.327 377.856 414.471 377.568 414.471 377.152C414.471 376.752 414.327 376.48 414.039 376.336C413.751 376.192 413.431 376.12 413.079 376.12H398.871L402.231 371.944H412.863C413.823 371.944 414.687 372.04 415.455 372.232C416.239 372.408 416.903 372.688 417.447 373.072C418.007 373.44 418.431 373.904 418.719 374.464C419.023 375.008 419.175 375.648 419.175 376.384C419.175 376.864 419.111 377.288 418.983 377.656C418.855 378.024 418.687 378.352 418.479 378.64C418.287 378.912 418.055 379.144 417.783 379.336C417.527 379.512 417.263 379.648 416.991 379.744ZM403.863 381.664V383.872H413.007C413.551 383.872 413.943 383.776 414.183 383.584C414.423 383.392 414.543 383.112 414.543 382.744C414.543 382.392 414.423 382.128 414.183 381.952C413.943 381.76 413.551 381.664 413.007 381.664H403.863ZM433.236 371.68C437.14 371.68 440.068 372.344 442.02 373.672C443.988 375 444.972 377.096 444.972 379.96C444.972 382.84 443.996 384.944 442.044 386.272C440.092 387.6 437.156 388.264 433.236 388.264C429.3 388.264 426.356 387.6 424.404 386.272C422.468 384.944 421.5 382.84 421.5 379.96C421.5 377.096 422.476 375 424.428 373.672C426.38 372.344 429.316 371.68 433.236 371.68ZM433.236 384.088C434.484 384.088 435.54 384.04 436.404 383.944C437.268 383.832 437.964 383.624 438.492 383.32C439.036 383.016 439.428 382.6 439.668 382.072C439.908 381.528 440.028 380.824 440.028 379.96C440.028 379.096 439.908 378.4 439.668 377.872C439.428 377.328 439.036 376.912 438.492 376.624C437.964 376.32 437.268 376.12 436.404 376.024C435.54 375.912 434.484 375.856 433.236 375.856C431.988 375.856 430.932 375.912 430.068 376.024C429.204 376.12 428.5 376.32 427.956 376.624C427.428 376.912 427.044 377.328 426.804 377.872C426.564 378.4 426.444 379.096 426.444 379.96C426.444 380.824 426.564 381.528 426.804 382.072C427.044 382.6 427.428 383.016 427.956 383.32C428.5 383.624 429.204 383.832 430.068 383.944C430.932 384.04 431.988 384.088 433.236 384.088ZM469.226 371.944L464.162 376.576C463.602 377.088 463.13 377.52 462.746 377.872C462.362 378.208 462.034 378.496 461.762 378.736C461.49 378.96 461.258 379.152 461.066 379.312C460.89 379.456 460.73 379.584 460.586 379.696C460.73 379.792 460.89 379.912 461.066 380.056C461.242 380.2 461.474 380.408 461.762 380.68C462.05 380.936 462.41 381.264 462.842 381.664C463.274 382.064 463.818 382.568 464.474 383.176L469.61 388H462.602L457.13 382.696L451.49 388H445.322L450.554 383.176C451.162 382.616 451.674 382.152 452.09 381.784C452.506 381.4 452.85 381.088 453.122 380.848C453.394 380.608 453.618 380.416 453.794 380.272C453.986 380.128 454.154 380 454.298 379.888C454.154 379.776 453.994 379.656 453.818 379.528C453.642 379.384 453.418 379.192 453.146 378.952C452.874 378.696 452.53 378.384 452.114 378.016C451.698 377.632 451.178 377.144 450.554 376.552L445.634 371.944H452.522L457.634 376.936L462.794 371.944H469.226ZM318.542 404.464C319.099 404.629 319.568 404.952 319.948 405.433C320.341 405.914 320.537 406.535 320.537 407.295C320.537 407.827 320.455 408.321 320.29 408.777C320.125 409.22 319.847 409.607 319.454 409.936C319.061 410.265 318.529 410.525 317.858 410.715C317.199 410.905 316.37 411 315.369 411H304.197V403.267H315.445C315.736 403.267 315.99 403.21 316.205 403.096C316.433 402.969 316.547 402.741 316.547 402.412C316.547 402.095 316.433 401.88 316.205 401.766C315.977 401.652 315.724 401.595 315.445 401.595H304.197L306.857 398.289H315.274C316.034 398.289 316.718 398.365 317.326 398.517C317.947 398.656 318.472 398.878 318.903 399.182C319.346 399.473 319.682 399.841 319.91 400.284C320.151 400.715 320.271 401.221 320.271 401.804C320.271 402.184 320.22 402.52 320.119 402.811C320.018 403.102 319.885 403.362 319.72 403.59C319.568 403.805 319.384 403.989 319.169 404.141C318.966 404.28 318.757 404.388 318.542 404.464ZM308.149 405.984V407.732H315.388C315.819 407.732 316.129 407.656 316.319 407.504C316.509 407.352 316.604 407.13 316.604 406.839C316.604 406.56 316.509 406.351 316.319 406.212C316.129 406.06 315.819 405.984 315.388 405.984H308.149ZM339.562 398.289L332.019 406.801V411H328.067V406.782L320.315 398.289H325.369L328.409 401.823C328.51 401.937 328.643 402.089 328.808 402.279C328.973 402.456 329.144 402.646 329.321 402.849C329.498 403.052 329.663 403.242 329.815 403.419C329.967 403.596 330.075 403.729 330.138 403.818C330.265 403.641 330.448 403.4 330.689 403.096C330.93 402.792 331.278 402.361 331.734 401.804L334.622 398.289H339.562ZM349.654 407.732H358.356C358.786 407.732 359.097 407.656 359.287 407.504C359.477 407.352 359.572 407.13 359.572 406.839C359.572 406.56 359.477 406.351 359.287 406.212C359.097 406.06 358.786 405.984 358.356 405.984H350.737L352.77 403.267H358.413C358.704 403.267 358.957 403.21 359.173 403.096C359.401 402.969 359.515 402.741 359.515 402.412C359.515 402.095 359.401 401.88 359.173 401.766C358.945 401.652 358.691 401.595 358.413 401.595H347.773L350.3 398.289H358.242C359.002 398.289 359.686 398.365 360.294 398.517C360.914 398.656 361.44 398.878 361.871 399.182C362.314 399.473 362.65 399.841 362.878 400.284C363.118 400.715 363.239 401.221 363.239 401.804C363.239 402.184 363.188 402.52 363.087 402.811C362.985 403.102 362.852 403.362 362.688 403.59C362.536 403.805 362.352 403.989 362.137 404.141C361.934 404.28 361.725 404.388 361.51 404.464C362.067 404.629 362.536 404.952 362.916 405.433C363.308 405.914 363.505 406.535 363.505 407.295C363.505 407.827 363.422 408.321 363.258 408.777C363.093 409.22 362.814 409.607 362.422 409.936C362.029 410.265 361.497 410.525 360.826 410.715C360.167 410.905 359.337 411 358.337 411H347.146L349.654 407.732ZM381.652 404.521C381.652 405.446 381.456 406.307 381.063 407.105C380.683 407.89 380.151 408.574 379.467 409.157C378.796 409.727 377.991 410.177 377.054 410.506C376.117 410.835 375.097 411 373.995 411H365.483V403.077H369.435V407.732H373.995C374.54 407.732 375.04 407.662 375.496 407.523C375.965 407.371 376.364 407.162 376.693 406.896C377.022 406.63 377.282 406.313 377.472 405.946C377.662 405.566 377.757 405.148 377.757 404.692C377.757 404.249 377.662 403.837 377.472 403.457C377.282 403.077 377.016 402.754 376.674 402.488C376.332 402.209 375.933 401.994 375.477 401.842C375.021 401.677 374.527 401.595 373.995 401.595H365.483L367.991 398.289H373.995C375.11 398.289 376.136 398.441 377.073 398.745C378.01 399.049 378.815 399.48 379.486 400.037C380.17 400.582 380.702 401.24 381.082 402.013C381.462 402.773 381.652 403.609 381.652 404.521ZM401.698 398.289L397.689 401.956C397.246 402.361 396.872 402.703 396.568 402.982C396.264 403.248 396.005 403.476 395.789 403.666C395.574 403.843 395.39 403.995 395.238 404.122C395.099 404.236 394.972 404.337 394.858 404.426C394.972 404.502 395.099 404.597 395.238 404.711C395.378 404.825 395.561 404.99 395.789 405.205C396.017 405.408 396.302 405.667 396.644 405.984C396.986 406.301 397.417 406.7 397.936 407.181L402.002 411H396.454L392.122 406.801L387.657 411H382.774L386.916 407.181C387.398 406.738 387.803 406.37 388.132 406.079C388.462 405.775 388.734 405.528 388.949 405.338C389.165 405.148 389.342 404.996 389.481 404.882C389.633 404.768 389.766 404.667 389.88 404.578C389.766 404.489 389.64 404.394 389.5 404.293C389.361 404.179 389.184 404.027 388.968 403.837C388.753 403.634 388.481 403.387 388.151 403.096C387.822 402.792 387.41 402.406 386.916 401.937L383.021 398.289H388.474L392.521 402.241L396.606 398.289H401.698ZM418.382 398.289L415.836 401.595H411.295V411H407.362V401.595H401.396L403.942 398.289H418.382ZM434.333 407.732L431.806 411H419.57V398.289H434.295L431.749 401.595H423.522V403.115H433.592L431.331 406.003H423.522V407.732H434.333ZM451.845 407.732L449.318 411H442.934C441.832 411 440.812 410.835 439.875 410.506C438.937 410.177 438.127 409.727 437.443 409.157C436.771 408.574 436.239 407.89 435.847 407.105C435.467 406.307 435.277 405.446 435.277 404.521C435.277 403.596 435.467 402.754 435.847 401.994C436.239 401.221 436.771 400.563 437.443 400.018C438.127 399.461 438.937 399.036 439.875 398.745C440.812 398.441 441.832 398.289 442.934 398.289H451.845L449.318 401.595H442.934C442.402 401.595 441.908 401.671 441.452 401.823C440.996 401.975 440.603 402.19 440.274 402.469C439.944 402.735 439.685 403.058 439.495 403.438C439.305 403.818 439.21 404.236 439.21 404.692C439.21 405.148 439.298 405.566 439.476 405.946C439.666 406.313 439.925 406.63 440.255 406.896C440.597 407.162 440.996 407.371 441.452 407.523C441.908 407.662 442.402 407.732 442.934 407.732H451.845ZM468.638 411H464.724V406.098H457.162V411H453.21V398.289H457.162V402.792H464.724V398.289H468.638V411Z" fill="white"/>
<path d="M53.6762 38.952V43.92C52.5422 42.786 50.8142 41.436 48.9782 40.572C47.0882 39.708 44.8742 39.168 42.7682 39.168C34.4522 39.168 28.2962 45.864 28.2962 54.18C28.2962 63.954 36.2342 68.868 42.8222 68.868C45.2522 68.868 47.6282 68.166 49.5182 67.194C51.5702 66.168 53.0282 64.818 53.6762 64.17V69.138C49.6802 72 45.5222 72.648 42.8222 72.648C32.1302 72.648 24.1922 64.548 24.1922 54.126C24.1922 43.38 32.2382 35.388 43.0382 35.388C45.1982 35.388 49.3562 35.658 53.6762 38.952ZM77.4623 35.982V39.762H65.0423V50.4H77.0303V54.18H65.0423V72H61.0463V35.982H77.4623ZM105.79 72H82.5164L95.6384 56.826C96.5564 55.746 98.9864 52.884 99.8504 51.588C101.47 49.266 101.848 47.538 101.848 46.08C101.848 42.03 98.9324 39.06 94.6664 39.06C92.1284 39.06 90.0224 40.194 88.6724 42.246C87.9704 43.326 87.5384 44.676 87.4844 46.512H83.4884C83.6504 42.894 84.7844 40.68 86.1884 39.06C87.7004 37.332 90.2384 35.388 94.7204 35.388C101.092 35.388 105.844 39.924 105.844 46.134C105.844 48.564 105.142 50.778 102.982 53.856C101.47 55.962 99.5264 58.176 98.0684 59.85L90.5624 68.328H105.79V72Z" fill="white"/>
<path d="M276.337 374.293C278.005 376.44 278.458 377.02 280.936 380.118C280.353 382.047 279.729 384.071 278.466 387.031C276.044 387.245 273.538 387.381 271.008 387.436C269.737 385.236 268.62 383.292 267.373 380.835C268.454 378.849 269.482 376.949 270.529 374.611C272.503 374.566 274.454 374.459 276.337 374.293ZM265.418 380.8L269.988 389.267L279.688 388.737L282.826 379.792L276.954 372.518L269.491 372.923L265.418 380.8Z" fill="#C73A40"/>
<path d="M283.522 376.494C282.573 375.408 281.619 374.327 280.664 373.246C279.996 372.489 279.328 371.732 278.662 370.974C278.816 368.78 278.889 367.551 278.519 365.613C279.575 365.424 280.556 365.205 281.445 364.962C283.224 366.287 284.927 367.561 287.095 369.37C287.8 371.559 288.205 372.855 288.409 375.43C286.938 375.831 285.297 376.189 283.522 376.494ZM280.684 363.56C279.573 363.885 278.152 364.182 276.772 364.267C277.241 366.605 277.187 369.139 277.124 371.517C277.977 372.513 283.014 378.368 283.014 378.368L290.066 376.81L288.324 368.66C288.324 368.66 282.016 364.121 280.684 363.56Z" fill="white"/>
<path d="M281.082 361.971C279.696 360.458 278.849 359.543 277.063 358.417C277.089 358.4 277.591 358.204 277.616 358.186C279.573 358.826 281.136 359.681 283.723 360.83C285.715 362.318 286.872 363.189 288.517 365.125C288.114 365.416 287.619 365.7 287.04 365.973C285.381 364.79 283.636 363.556 281.082 361.971ZM290.38 365.853C290.38 365.853 287.248 362.097 284.179 359.97L276.137 357L274.308 358.013C274.308 358.013 278.225 360.432 280.106 362.727L287.691 367.521L290.38 365.853Z" fill="white"/>
<path d="M296.59 383.056C295.501 381.5 294.327 379.855 292.321 377.555C292.105 375.586 291.868 373.547 291.016 371.042C291.805 370.666 292.476 370.268 293.02 369.854C294.504 371.193 295.925 372.503 297.466 374.381C298.157 376.382 298.865 378.457 299.241 381.468C298.558 382.017 297.669 382.55 296.59 383.056ZM289.153 369.93C290.04 372.628 290.641 375.284 290.836 378.121C292.748 380.393 294.575 382.713 296.207 385.193C297.806 384.501 299.336 383.723 300.633 382.544C300.204 379.49 299.567 376.561 298.455 373.672C296.654 371.575 294.698 369.643 292.584 367.854C291.55 368.788 290.433 369.378 289.153 369.93Z" fill="white"/>
<path d="M290.734 381.513C292.103 383.274 293.407 384.972 294.784 387.212C294.381 389.401 293.95 391.681 292.831 394.859C290.993 395.368 288.935 395.82 286.705 396.204C285.53 394.217 284.732 392.885 282.707 389.924C283.614 387.684 284.47 385.535 285.186 382.726C287.196 382.381 289.06 381.973 290.734 381.513ZM285.745 398.193C288.505 397.746 291.236 397.187 293.918 396.402C294.985 393.27 295.902 390.077 296.362 386.797C294.751 384.274 293.024 381.85 291.133 379.524C288.726 380.226 286.286 380.727 283.811 381.135C282.969 384.213 281.926 387.206 280.669 390.144C282.439 392.777 284.176 395.436 285.745 398.193Z" fill="white"/>
<path d="M270.78 406.988C269.364 404.794 268.299 403.141 266.964 400.918C267.923 399.305 269.305 396.971 270.916 394.105C273.577 394.051 276.212 393.913 278.755 393.692C279.88 395.474 281.056 397.345 282.618 400.017C281.47 401.931 280.258 403.929 278.348 406.589C275.884 406.804 273.34 406.939 270.78 406.988ZM279.705 391.776C276.424 392.088 273.133 392.256 269.838 392.299C268.206 395.185 266.552 398.057 264.847 400.9C266.442 403.517 268.085 406.101 269.758 408.669C272.933 408.624 276.1 408.46 279.261 408.168C281.189 405.482 283.032 402.748 284.686 399.887C283.082 397.15 281.43 394.442 279.705 391.776Z" fill="white"/>
<path d="M257.784 377.128C257.405 375.278 257.032 373.352 256.989 371.031C259.592 368.177 260.398 367.286 261.463 366.085C262.666 366.215 263.921 366.312 265.199 366.372C265.615 367.815 266.083 369.354 267.127 371.689C266.29 373.281 265.401 374.958 263.802 377.584C261.748 377.492 259.727 377.339 257.784 377.128ZM256.423 378.743C257.472 379.014 264.684 379.378 264.684 379.378C264.722 379.378 268.856 371.776 268.887 371.713C267.881 369.508 267.108 367.157 266.421 364.837C264.702 364.925 261.125 364.452 261.125 364.452L255.422 370.596C255.582 375.812 256.423 378.743 256.423 378.743Z" fill="white"/>
<path d="M257.495 413.871C256.093 412.328 254.752 410.843 253.039 408.583C253.623 407.24 254.261 405.801 255.545 403.402C257.935 403.665 260.429 403.854 262.968 403.966C264.204 405.898 265.083 407.265 266.834 409.784C264.712 412.869 264.288 413.498 263.73 414.349C261.599 414.253 259.505 414.093 257.495 413.871ZM268.934 409.79C267.241 407.307 265.57 404.81 263.989 402.256C260.811 402.142 257.651 401.896 254.493 401.529C253.276 403.843 252.104 406.163 251.135 408.591C252.935 410.905 254.811 413.144 256.835 415.27C259.451 415.576 262.077 415.77 264.708 415.867C266.102 413.832 267.52 411.813 268.934 409.79Z" fill="white"/>
<path d="M243.599 377.455C244.964 375.998 246.396 374.479 248.706 372.321C249.962 372.704 251.368 373.051 252.894 373.353C252.948 375.154 253.036 377.063 253.617 379.852C251.984 381.981 250.664 383.708 249.126 385.878C247.152 385.491 245.337 385.046 243.723 384.553C243.516 382.438 243.325 380.233 243.599 377.455ZM242.326 386.007C244.776 386.802 247.279 387.385 249.812 387.852C251.636 385.265 253.51 382.713 255.421 380.188C254.854 377.428 254.474 374.716 254.471 371.894C252.5 371.53 250.556 371.083 248.65 370.465C246.42 372.521 244.196 374.585 242.175 376.845C241.906 379.913 241.94 382.951 242.326 386.007Z" fill="white"/>
<path d="M254.894 418.456C253.726 418.213 252.649 417.939 251.681 417.639C249.993 416.45 248.244 415.214 246.047 413.116C245.574 411.818 245.327 411.107 245.295 409.714C246.784 410.154 248.445 410.553 250.242 410.901C251.521 412.385 252.969 414.055 254.997 415.979C254.873 416.781 254.766 417.604 254.894 418.456ZM256.735 415.76C254.691 413.757 252.723 411.675 250.922 409.454C248.49 409.019 246.085 408.41 243.736 407.651C243.78 409.727 243.873 411.427 244.747 413.373C245.674 414.223 250.098 417.87 251.5 418.782C252.983 419.486 255.177 419.768 256.797 420.065C256.426 418.54 256.377 417.295 256.735 415.76Z" fill="white"/>
<path d="M300.701 387.947C301.171 389.478 301.609 391.11 301.689 393.237C300.46 399.053 299.595 400.633 299.442 400.882C298.787 401.434 297.927 401.969 296.878 402.478C296.725 401.094 296.5 399.582 295.767 397.399C296.526 395.242 297.373 392.798 297.932 389.532C299.022 389.031 299.95 388.501 300.701 387.947ZM302.813 392.972C302.638 390.23 302.118 387.929 301.175 385.34C299.843 386.545 298.354 387.419 296.705 388.13C296.115 391.326 295.121 394.509 294.116 397.6C294.371 397.6 295.48 403.499 295.555 404.755C297.211 404.04 298.79 403.43 300.085 402.119C301.196 399.462 302.642 395.857 302.813 392.972Z" fill="white"/>
<path d="M274.971 419.36C273.336 419.504 271.644 419.594 269.934 419.63C269.081 418.616 268.22 417.608 267.362 416.597C268.443 415.191 269.529 413.789 270.603 412.378C272.994 412.331 275.365 412.207 277.657 412.009C278.32 413.277 278.941 414.492 279.396 415.762C276.524 418.262 275.289 419.145 274.971 419.36ZM281.261 415.945C280.519 414.005 279.76 412.169 278.784 410.329C275.758 410.618 272.724 410.778 269.684 410.813C268.236 412.747 266.781 414.675 265.352 416.622C266.007 417.371 266.666 418.116 267.325 418.863C267.929 419.545 268.53 420.23 269.132 420.913C271.207 420.887 273.29 420.742 275.361 420.59C277.427 419.142 279.374 417.621 281.261 415.945Z" fill="white"/>
<path d="M284.112 418.924C281.247 420.825 278.734 421.648 276.627 422.011C276.165 422.116 276.065 421.764 276.091 421.559C277.485 420.708 279.707 419.166 281.723 417.563C283.082 417.331 284.358 417.067 285.531 416.772C285.149 417.431 284.972 418.263 284.112 418.924ZM287.956 414.741C285.215 415.851 281.279 416.269 281.279 416.269C281.279 416.269 275.268 421.62 274.566 421.932L274.84 422.642C277.984 422.075 281.321 421.256 284.783 418.986C285.216 418.713 287.802 415.852 287.956 414.741Z" fill="white"/>
<path d="M289.345 415.248C289.534 414.915 289.709 414.543 289.883 414.097C291.458 412.511 293.088 410.86 294.975 408.282C295.556 408.018 296.088 407.746 296.567 407.464C295.013 410.453 291.954 413.186 289.345 415.248ZM295.09 406.946L289.264 413.845C289.294 414.232 287.398 417.621 287.398 417.621C293.053 414.122 297.02 409.635 299.474 403.492C298.42 404.936 296.796 406.294 295.09 406.946Z" fill="white"/>
<path d="M283.702 413.225C283.359 412.098 282.992 411.005 282.03 409.07C283.485 407.173 284.875 405.338 286.496 402.663C288.68 402.291 290.704 401.852 292.522 401.355C292.977 402.884 293.384 404.369 293.481 406.158C290.307 410.636 289.016 411.87 288.751 412.102C287.239 412.526 285.542 412.903 283.702 413.225ZM295.004 406.213C294.854 403.826 294.359 401.547 293.604 399.278C290.949 400.055 288.26 400.626 285.527 401.068C283.831 403.833 281.99 406.508 279.995 409.072C281.183 410.944 281.828 412.866 282.382 414.912C284.521 414.568 286.645 414.151 288.73 413.56L295.004 406.213Z" fill="white"/>
</g>
<defs>
<clipPath id="clip0_32_2">
<rect width="475" height="475" fill="white"/>
</clipPath>
</defs>
</svg>
