<?xml version="1.0" encoding="UTF-8" standalone="no"?>
<!-- Created with Inkscape (http://www.inkscape.org/) -->

<svg
   width="154"
   height="154"
   viewBox="0 0 60 60"
   version="1.1"
   id="svg43854"
   inkscape:version="1.1.1 (3bf5ae0d25, 2021-09-20)"
   sodipodi:docname="3DXTechLogoIcon_154x154.svg"
   xmlns:inkscape="http://www.inkscape.org/namespaces/inkscape"
   xmlns:sodipodi="http://sodipodi.sourceforge.net/DTD/sodipodi-0.dtd"
   xmlns="http://www.w3.org/2000/svg"
   xmlns:svg="http://www.w3.org/2000/svg">
  <sodipodi:namedview
     id="namedview43856"
     pagecolor="#505050"
     bordercolor="#eeeeee"
     borderopacity="1"
     inkscape:pageshadow="0"
     inkscape:pageopacity="0"
     inkscape:pagecheckerboard="0"
     inkscape:document-units="mm"
     showgrid="false"
     units="px"
     inkscape:zoom="3.4628906"
     inkscape:cx="135.86915"
     inkscape:cy="57.322053"
     inkscape:window-width="2560"
     inkscape:window-height="1377"
     inkscape:window-x="1912"
     inkscape:window-y="-8"
     inkscape:window-maximized="1"
     inkscape:current-layer="layer1" />
  <defs
     id="defs43851">
    <clipPath
       clipPathUnits="userSpaceOnUse"
       id="clipPath954">
      <path
         d="M 0,214.565 H 372.304 V 0 H 0 Z"
         id="path952" />
    </clipPath>
  </defs>
  <g
     inkscape:label="Layer 1"
     inkscape:groupmode="layer"
     id="layer1">
    <g
       id="g948"
       transform="matrix(3.6740282,0,0,-3.404075,-2358.1678,314.66898)"
       style="stroke-width:0.103895">
      <g
         id="g950"
         clip-path="url(#clipPath954)"
         transform="matrix(1.045,0,0,1.045,630.68501,-90.292476)"
         style="stroke-width:0.103895">
        <g
           id="g956"
           transform="matrix(0.24,0,0,0.24,14.769057,170.70925)"
           style="stroke-width:0.103895">
          <path
             d="m 0,0 3.323,-6.157 7.054,0.385 2.281,6.504 L 8.388,6.021 2.961,5.727 Z M 7.939,4.731 C 9.152,3.17 9.481,2.748 11.284,0.495 10.86,-0.907 10.406,-2.379 9.488,-4.531 7.727,-4.687 5.904,-4.786 4.065,-4.825 3.14,-3.226 2.328,-1.812 1.422,-0.025 2.207,1.418 2.954,2.801 3.717,4.5 5.151,4.533 6.57,4.61 7.939,4.731"
             style="fill:#b42625;fill-opacity:1;fill-rule:evenodd;stroke:none;stroke-width:0.103895"
             id="path958" />
        </g>
        <g
           id="g960"
           transform="matrix(0.24,0,0,0.24,17.433081,173.71765)"
           style="stroke-width:0.103895">
          <path
             d="m 0,0 c -0.807,-0.236 -1.84,-0.452 -2.845,-0.514 0.341,-1.701 0.302,-3.543 0.257,-5.271 0.619,-0.724 4.283,-4.982 4.283,-4.982 l 5.127,1.133 -1.266,5.926 c 0,0 -4.588,3.3 -5.556,3.708 m 2.064,-9.404 c -0.69,0.789 -1.384,1.575 -2.078,2.361 -0.486,0.551 -0.972,1.101 -1.456,1.652 0.112,1.595 0.165,2.49 -0.104,3.898 0.768,0.138 1.482,0.297 2.128,0.473 C 1.847,-1.983 3.086,-2.909 4.662,-4.224 5.175,-5.816 5.469,-6.758 5.617,-8.631 4.548,-8.923 3.354,-9.183 2.064,-9.404"
             style="fill:#808181;fill-opacity:1;fill-rule:evenodd;stroke:none;stroke-width:0.103895"
             id="path962" />
        </g>
        <g
           id="g964"
           transform="matrix(0.24,0,0,0.24,19.125225,173.31745)"
           style="stroke-width:0.103895">
          <path
             d="m 0,0 c 0,0 -2.277,2.731 -4.509,4.278 l -5.848,2.16 -1.33,-0.737 c 0,0 2.849,-1.758 4.216,-3.428 l 5.515,-3.485 z m -6.761,2.822 c -1.007,1.1 -1.623,1.767 -2.922,2.585 0.018,0.012 0.384,0.154 0.402,0.168 C -7.858,5.11 -6.721,4.488 -4.84,3.653 -3.392,2.57 -2.55,1.937 -1.354,0.53 -1.647,0.318 -2.007,0.112 -2.428,-0.087 -3.635,0.773 -4.904,1.671 -6.761,2.822"
             style="fill:#808181;fill-opacity:1;fill-rule:evenodd;stroke:none;stroke-width:0.103895"
             id="path966" />
        </g>
        <g
           id="g968"
           transform="matrix(0.24,0,0,0.24,18.911241,172.60614)"
           style="stroke-width:0.103895">
          <path
             d="m 0,0 c 0.645,-1.963 1.081,-3.893 1.223,-5.956 1.39,-1.652 2.719,-3.34 3.906,-5.142 1.163,0.503 2.275,1.069 3.218,1.926 -0.312,2.22 -0.775,4.35 -1.583,6.451 -1.31,1.525 -2.733,2.929 -4.27,4.23 C 1.742,0.83 0.93,0.401 0,0 m 5.407,-9.545 c -0.792,1.133 -1.646,2.328 -3.104,4.001 -0.157,1.431 -0.33,2.915 -0.949,4.735 0.573,0.275 1.062,0.563 1.457,0.864 C 3.891,-0.918 4.923,-1.87 6.044,-3.237 6.546,-4.691 7.061,-6.2 7.335,-8.39 6.838,-8.789 6.192,-9.177 5.407,-9.545"
             style="fill:#808181;fill-opacity:1;fill-rule:evenodd;stroke:none;stroke-width:0.103895"
             id="path970" />
        </g>
        <g
           id="g972"
           transform="matrix(0.24,0,0,0.24,18.316401,167.67385)"
           style="stroke-width:0.103895">
          <path
             d="M 0,0 C 2.007,0.324 3.992,0.731 5.942,1.302 6.719,3.579 7.386,5.901 7.72,8.287 6.549,10.121 5.292,11.883 3.917,13.575 2.167,13.064 0.393,12.7 -1.406,12.403 -2.019,10.165 -2.777,7.989 -3.692,5.853 -2.403,3.938 -1.141,2.004 0,0 M 3.628,12.129 C 4.623,10.848 5.571,9.613 6.572,7.984 6.28,6.393 5.966,4.735 5.153,2.424 3.817,2.054 2.32,1.725 0.698,1.446 -0.156,2.891 -0.737,3.86 -2.209,6.012 c 0.659,1.629 1.283,3.191 1.802,5.234 1.462,0.251 2.817,0.548 4.035,0.883"
             style="fill:#808181;fill-opacity:1;fill-rule:evenodd;stroke:none;stroke-width:0.103895"
             id="path974" />
        </g>
        <g
           id="g976"
           transform="matrix(0.24,0,0,0.24,17.262273,168.79362)"
           style="stroke-width:0.103895">
          <path
             d="m 0,0 c -2.386,-0.227 -4.779,-0.348 -7.175,-0.38 -1.186,-2.098 -2.389,-4.187 -3.629,-6.249 1.16,-1.902 2.354,-3.781 3.571,-5.648 2.309,0.033 4.612,0.151 6.91,0.364 1.402,1.953 2.743,3.94 3.946,6.018 C 2.456,-3.908 1.255,-1.938 0,0 m -6.489,-11.055 c -1.03,1.596 -1.804,2.797 -2.775,4.413 0.697,1.168 1.702,2.865 2.873,4.949 1.935,0.039 3.851,0.139 5.7,0.3 0.818,-1.296 1.674,-2.656 2.809,-4.596 -0.835,-1.389 -1.716,-2.842 -3.105,-4.777 -1.791,-0.155 -3.641,-0.253 -5.502,-0.289"
             style="fill:#808181;fill-opacity:1;fill-rule:evenodd;stroke:none;stroke-width:0.103895"
             id="path978" />
        </g>
        <g
           id="g980"
           transform="matrix(0.24,0,0,0.24,13.199169,171.06808)"
           style="stroke-width:0.103895">
          <path
             d="m 0,0 c 0.763,-0.197 6.007,-0.461 6.007,-0.461 0.028,0 3.034,5.527 3.056,5.573 C 8.332,6.715 7.77,8.424 7.27,10.111 6.02,10.047 3.419,10.392 3.419,10.392 L -0.728,5.924 C -0.611,2.132 0,0 0,0 M 0.991,1.175 C 0.715,2.519 0.444,3.92 0.412,5.608 2.305,7.683 2.891,8.331 3.665,9.205 4.54,9.11 5.452,9.039 6.382,8.995 6.684,7.946 7.024,6.827 7.784,5.129 7.176,3.972 6.529,2.752 5.367,0.843 3.873,0.909 2.403,1.021 0.991,1.175"
             style="fill:#808181;fill-opacity:1;fill-rule:evenodd;stroke:none;stroke-width:0.103895"
             id="path982" />
        </g>
        <g
           id="g984"
           transform="matrix(0.24,0,0,0.24,15.382545,165.6514)"
           style="stroke-width:0.103895">
          <path
             d="m 0,0 c -1.231,1.805 -2.445,3.621 -3.596,5.477 -2.31,0.084 -4.608,0.263 -6.904,0.529 -0.885,-1.682 -1.737,-3.37 -2.441,-5.135 1.308,-1.682 2.672,-3.31 4.144,-4.856 1.902,-0.223 3.811,-0.364 5.725,-0.435 C -2.059,-2.94 -1.027,-1.471 0,0 m -8.317,-2.967 c -1.02,1.122 -1.995,2.202 -3.24,3.845 0.424,0.976 0.888,2.023 1.822,3.767 1.738,-0.191 3.551,-0.329 5.397,-0.41 0.899,-1.404 1.538,-2.398 2.811,-4.23 -1.543,-2.244 -1.851,-2.701 -2.256,-3.32 -1.55,0.069 -3.073,0.186 -4.534,0.348"
             style="fill:#808181;fill-opacity:1;fill-rule:evenodd;stroke:none;stroke-width:0.103895"
             id="path986" />
        </g>
        <g
           id="g988"
           transform="matrix(0.24,0,0,0.24,10.739145,169.80035)"
           style="stroke-width:0.103895">
          <path
             d="M 0,0 C 1.781,-0.578 3.601,-1.002 5.443,-1.341 6.77,0.54 8.132,2.395 9.522,4.231 9.11,6.238 8.834,8.21 8.832,10.261 7.399,10.526 5.985,10.851 4.599,11.301 2.978,9.806 1.36,8.305 -0.11,6.662 -0.305,4.432 -0.28,2.223 0,0 M 0.926,6.219 C 1.918,7.278 2.959,8.383 4.639,9.951 5.552,9.673 6.575,9.421 7.684,9.201 7.723,7.892 7.787,6.504 8.209,4.476 7.022,2.927 6.062,1.672 4.944,0.094 3.508,0.375 2.189,0.699 1.015,1.058 0.866,2.595 0.727,4.199 0.926,6.219"
             style="fill:#808181;fill-opacity:1;fill-rule:evenodd;stroke:none;stroke-width:0.103895"
             id="path990" />
        </g>
        <g
           id="g992"
           transform="matrix(0.24,0,0,0.24,13.253673,164.60939)"
           style="stroke-width:0.103895">
          <path
             d="m 0,0 c -1.486,1.456 -2.917,2.971 -4.226,4.585 -1.768,0.317 -3.518,0.76 -5.225,1.311 0.032,-1.509 0.1,-2.745 0.735,-4.16 0.674,-0.618 3.891,-3.27 4.91,-3.933 1.078,-0.512 2.673,-0.716 3.851,-0.934 C -0.225,-2.021 -0.26,-1.116 0,0 m -1.338,-1.96 c -0.849,0.177 -1.633,0.376 -2.337,0.594 -1.227,0.865 -2.499,1.763 -4.096,3.289 -0.344,0.944 -0.524,1.461 -0.547,2.474 1.083,-0.32 2.29,-0.61 3.597,-0.863 0.93,-1.079 1.983,-2.293 3.458,-3.693 -0.091,-0.583 -0.168,-1.181 -0.075,-1.801"
             style="fill:#808181;fill-opacity:1;fill-rule:evenodd;stroke:none;stroke-width:0.103895"
             id="path994" />
        </g>
        <g
           id="g996"
           transform="matrix(0.24,0,0,0.24,21.294993,168.58494)"
           style="stroke-width:0.103895">
          <path
             d="M 0,0 C -0.127,1.994 -0.505,3.667 -1.191,5.55 -2.16,4.674 -3.242,4.038 -4.442,3.521 -4.87,1.198 -5.593,-1.117 -6.324,-3.365 c 0.186,0 0.992,-4.284 1.046,-5.197 1.205,0.52 2.353,0.964 3.294,1.917 C -1.176,-4.718 -0.124,-2.098 0,0 m -1.536,3.653 c 0.342,-1.113 0.661,-2.299 0.719,-3.846 -0.894,-4.229 -1.523,-5.374 -1.634,-5.554 -0.476,-0.401 -1.101,-0.789 -1.864,-1.16 -0.112,1.007 -0.275,2.102 -0.808,3.688 0.551,1.568 1.167,3.346 1.574,5.72 0.793,0.364 1.467,0.75 2.013,1.152"
             style="fill:#808181;fill-opacity:1;fill-rule:evenodd;stroke:none;stroke-width:0.103895"
             id="path998" />
        </g>
        <g
           id="g1000"
           transform="matrix(0.24,0,0,0.24,17.533905,164.57737)"
           style="stroke-width:0.103895">
          <path
             d="M 0,0 C -0.54,1.41 -1.092,2.745 -1.802,4.083 -4.001,3.873 -6.208,3.757 -8.418,3.731 -9.471,2.325 -10.53,0.923 -11.569,-0.493 c 0.477,-0.545 0.956,-1.087 1.435,-1.629 0.439,-0.496 0.876,-0.994 1.314,-1.491 1.509,0.019 3.024,0.125 4.529,0.235 C -2.788,-2.324 -1.372,-1.22 0,0 m -4.574,-2.484 c -1.189,-0.104 -2.42,-0.17 -3.663,-0.196 -0.62,0.737 -1.246,1.47 -1.87,2.206 0.786,1.022 1.576,2.041 2.357,3.068 1.738,0.033 3.462,0.124 5.129,0.268 0.482,-0.922 0.934,-1.806 1.264,-2.729 -2.088,-1.818 -2.986,-2.46 -3.217,-2.617"
             style="fill:#808181;fill-opacity:1;fill-rule:evenodd;stroke:none;stroke-width:0.103895"
             id="path1002" />
        </g>
        <g
           id="g1004"
           transform="matrix(0.24,0,0,0.24,18.702297,164.78733)"
           style="stroke-width:0.103895">
          <path
             d="m 0,0 c -1.993,-0.808 -4.855,-1.112 -4.855,-1.112 0,0 -4.371,-3.89 -4.881,-4.118 l 0.199,-0.516 c 2.287,0.413 4.712,1.008 7.23,2.659 C -1.993,-2.888 -0.112,-0.808 0,0 m -2.796,-3.042 c -2.083,-1.383 -3.91,-1.98 -5.442,-2.244 -0.337,-0.076 -0.408,0.179 -0.391,0.329 1.014,0.619 2.63,1.74 4.096,2.905 0.988,0.169 1.916,0.361 2.769,0.575 -0.277,-0.478 -0.406,-1.084 -1.032,-1.565"
             style="fill:#808181;fill-opacity:1;fill-rule:evenodd;stroke:none;stroke-width:0.103895"
             id="path1006" />
        </g>
        <g
           id="g1008"
           transform="matrix(0.24,0,0,0.24,19.947297,166.14767)"
           style="stroke-width:0.103895">
          <path
             d="m 0,0 -4.237,-5.017 c 0.022,-0.281 -1.357,-2.745 -1.357,-2.745 4.113,2.544 6.997,5.807 8.781,10.274 C 2.421,1.462 1.24,0.474 0,0 m -4.177,-6.036 c 0.136,0.241 0.264,0.512 0.39,0.836 1.146,1.154 2.332,2.354 3.703,4.229 0.423,0.192 0.81,0.389 1.158,0.594 -1.131,-2.174 -3.355,-4.159 -5.251,-5.659"
             style="fill:#808181;fill-opacity:1;fill-rule:evenodd;stroke:none;stroke-width:0.103895"
             id="path1010" />
        </g>
        <g
           id="g1012"
           transform="matrix(0.24,0,0,0.24,19.932153,166.27561)"
           style="stroke-width:0.103895">
          <path
             d="M 0,0 C -0.109,1.736 -0.469,3.393 -1.017,5.037 -2.948,4.474 -4.903,4.061 -6.89,3.741 c -1.234,-2.01 -2.572,-3.956 -4.023,-5.82 0.863,-1.362 1.333,-2.759 1.736,-4.247 1.556,0.25 3.099,0.554 4.616,0.983 z m -8.218,-5.099 c -0.25,0.819 -0.517,1.615 -1.216,3.022 1.058,1.379 2.069,2.714 3.247,4.659 1.589,0.27 3.06,0.589 4.383,0.95 0.33,-1.111 0.626,-2.192 0.696,-3.492 -2.307,-3.256 -3.246,-4.153 -3.439,-4.322 -1.1,-0.308 -2.333,-0.583 -3.671,-0.817"
             style="fill:#808181;fill-opacity:1;fill-rule:evenodd;stroke:none;stroke-width:0.103895"
             id="path1014" />
        </g>
      </g>
    </g>
  </g>
</svg>
